<svg id="visual" viewBox="0 0 900 30" width="900" height="30" xmlns="http://www.w3.org/2000/svg" xmlns:xlink="http://www.w3.org/1999/xlink" version="1.1"><rect x="0" y="0" width="900" height="30" fill="#242424"></rect><path d="M0 11L30 12C60 13 120 15 180 17.2C240 19.3 300 21.7 360 22.3C420 23 480 22 540 22.5C600 23 660 25 720 23.8C780 22.7 840 18.3 870 16.2L900 14L900 31L870 31C840 31 780 31 720 31C660 31 600 31 540 31C480 31 420 31 360 31C300 31 240 31 180 31C120 31 60 31 30 31L0 31Z" fill="#6c6c6c" stroke-linecap="round" stroke-linejoin="miter"></path></svg>