<svg id="visual" viewBox="0 0 900 30" width="900" height="30" xmlns="http://www.w3.org/2000/svg" xmlns:xlink="http://www.w3.org/1999/xlink" version="1.1"><rect x="0" y="0" width="900" height="30" fill="#242424"></rect><path d="M0 17L30 16C60 15 120 13 180 10.8C240 8.7 300 6.3 360 5.7C420 5 480 6 540 5.5C600 5 660 3 720 4.2C780 5.3 840 9.7 870 11.8L900 14L900 0L870 0C840 0 780 0 720 0C660 0 600 0 540 0C480 0 420 0 360 0C300 0 240 0 180 0C120 0 60 0 30 0L0 0Z" fill="#6c6c6c" stroke-linecap="round" stroke-linejoin="miter"></path></svg>