<svg id="visual" viewBox="0 0 960 80" width="960" height="80" xmlns="http://www.w3.org/2000/svg" xmlns:xlink="http://www.w3.org/1999/xlink" version="1.1"><rect x="0" y="0" width="960" height="80" fill="#242424"></rect><path d="M0 57L22.8 57.3C45.7 57.7 91.3 58.3 137 54.2C182.7 50 228.3 41 274 33.8C319.7 26.7 365.3 21.3 411.2 17.2C457 13 503 10 548.8 12.8C594.7 15.7 640.3 24.3 686 32.5C731.7 40.7 777.3 48.3 823 51C868.7 53.7 914.3 51.3 937.2 50.2L960 49L960 0L937.2 0C914.3 0 868.7 0 823 0C777.3 0 731.7 0 686 0C640.3 0 594.7 0 548.8 0C503 0 457 0 411.2 0C365.3 0 319.7 0 274 0C228.3 0 182.7 0 137 0C91.3 0 45.7 0 22.8 0L0 0Z" fill="#424242" stroke-linecap="round" stroke-linejoin="miter"></path></svg>